<?xml version="1.0" encoding="utf-8"?>
<?xml-stylesheet type="text/css" href="../css/main.css" ?>
<!-- Generator: Adobe Illustrator 23.0.1, SVG Export Plug-In . SVG Version: 6.00 Build 0)  -->
<svg version="1.1" id="Camada_1" xmlns="http://www.w3.org/2000/svg" xmlns:xlink="http://www.w3.org/1999/xlink" x="0px" y="0px"
	 width="250px" height="76.8px" viewBox="0 0 250 76.8" style="enable-background:new 0 0 250 76.8;" xml:space="preserve">
<g>
	<path class="st0" d="M6.8,5.9c-3.5,0-6.4,2.9-6.4,6.4c0,3.5,2.9,6.4,6.4,6.4s6.4-2.9,6.4-6.4C13.1,8.8,10.3,5.9,6.8,5.9z"/>
	<path class="st0" d="M29.9,27.2v9.6h16.7c-1,3.3-2.9,5.8-5.6,7.7c-2.8,1.9-6.2,2.8-10.4,2.8c-0.1,0-0.1,0-0.2,0v10.6
		c8,0,14.6-2.4,19.6-7.3c5-4.9,7.6-11.3,7.6-19.1v-4.2H29.9z"/>
	<g>
		<path class="st2" d="M40.2,2.2c-8.3-3.4-18.1-2.8-25.8,1.8l-0.5,0.3c-0.4,0.2-1,0.6-1.7,1.2c2.1,1.6,3.5,4.2,3.5,7
			c0,4.9-4,8.8-8.8,8.8c-2,0-3.8-0.7-5.3-1.8C0.5,22.5,0,25.7,0,29c0,7.4,2.8,14.4,7.8,19.8l7.8-7.8c-1.4-1.5-2.5-3.3-3.2-5.1
			C11.4,33.8,11,31.4,11,29c0-4.8,1.9-9.4,5.3-12.8c3.4-3.4,8-5.3,12.8-5.3c2.4,0,4.7,0.5,6.9,1.4c1.9,0.8,3.6,1.9,5.1,3.2l7.8-7.8
			C46.3,5.4,43.4,3.5,40.2,2.2z"/>
		<path class="st2" d="M69.7,13c-1.7,0-3.1-0.6-4.3-1.8c-1.2-1.2-1.8-2.7-1.8-4.3c0-1.7,0.6-3.1,1.8-4.4c1.2-1.2,2.7-1.9,4.3-1.9
			c1.7,0,3.2,0.6,4.4,1.9c1.2,1.2,1.8,2.7,1.8,4.4c0,1.7-0.6,3.1-1.8,4.3C72.9,12.4,71.4,13,69.7,13z M64.7,56.6V16.5l10.1,3.7v36.5
			H64.7z"/>
		<path class="st2" d="M106.7,16.6c5.3,0,9.7,2,13.5,6c3.7,4,5.6,8.9,5.6,14.6s-1.9,10.6-5.6,14.6c-3.7,4-8.2,6-13.5,6
			c-5.5,0-9.7-1.9-12.6-5.7v4.6H84V0L94,3.7v18.5C97,18.5,101.2,16.6,106.7,16.6z M97.1,45.1c2,2.1,4.6,3.1,7.7,3.1
			c3.1,0,5.7-1,7.8-3.1c2.1-2.1,3.1-4.7,3.1-7.9c0-3.2-1-5.9-3.1-7.9c-2.1-2.1-4.6-3.1-7.8-3.1c-3.1,0-5.7,1-7.7,3.1
			c-2,2.1-3,4.7-3,7.9C94,40.4,95.1,43,97.1,45.1z"/>
		<path class="st2" d="M141.2,28.7c0,1,0.7,1.9,2.1,2.5c1.4,0.7,3.1,1.2,5,1.7c2,0.5,4,1.1,5.9,1.9c2,0.8,3.7,2,5,3.8
			c1.4,1.8,2.1,4,2.1,6.6c0,4-1.5,7.1-4.5,9.2c-3,2.2-6.7,3.2-11.2,3.2c-8,0-13.5-3.1-16.4-9.3l8.7-4.9c1.1,3.4,3.7,5.1,7.6,5.1
			c3.6,0,5.4-1.1,5.4-3.4c0-1-0.7-1.9-2.1-2.5c-1.4-0.6-3.1-1.2-5-1.8c-2-0.5-4-1.2-5.9-1.9c-2-0.8-3.7-2-5-3.7
			c-1.4-1.7-2.1-3.8-2.1-6.4c0-3.8,1.4-6.9,4.3-9.1c2.8-2.2,6.4-3.3,10.6-3.3c3.2,0,6.1,0.7,8.7,2.1c2.6,1.4,4.7,3.5,6.2,6.1
			l-8.6,4.7c-1.2-2.7-3.3-4-6.2-4c-1.3,0-2.4,0.3-3.2,0.9C141.6,27,141.2,27.7,141.2,28.7z"/>
		<path class="st2" d="M200.5,51.8c-4,4-8.9,6-14.7,6c-5.8,0-10.6-2-14.6-6c-4-4-6-8.9-6-14.6s2-10.6,6-14.6c4-4,8.9-6,14.6-6
			c5.8,0,10.7,2,14.7,6c4,4,6,8.9,6,14.6S204.5,47.8,200.5,51.8z M178.3,44.9c2,2,4.5,3,7.5,3c3,0,5.5-1,7.6-3c2-2,3-4.6,3-7.7
			s-1-5.7-3-7.7c-2-2-4.5-3-7.6-3c-3,0-5.5,1-7.5,3c-2,2-3,4.6-3,7.7S176.3,42.8,178.3,44.9z"/>
		<path class="st2" d="M235.3,16.6c4.3,0,7.8,1.4,10.6,4.3c2.8,2.9,4.2,6.8,4.2,11.9v23.9h-10.1V33.9c0-2.6-0.7-4.6-2.1-6
			c-1.4-1.4-3.3-2.1-5.6-2.1c-2.6,0-4.7,0.8-6.2,2.4c-1.6,1.6-2.3,4-2.3,7.3v21.1h-10.1V13.9l10.1,3.7V22
			C226.1,18.4,230,16.6,235.3,16.6z"/>
	</g>
	<g>
		<g>
			<path class="st0" d="M132.3,55.4V57h-5.1v14.9h-1.6V57h-5.1v-1.6H132.3z"/>
			<path class="st0" d="M139.2,59.8c1.7,0,3.1,0.6,4.2,1.8c1.1,1.2,1.6,2.7,1.6,4.4c0,0.2,0,0.4,0,0.7h-10.3
				c0.2,1.2,0.7,2.1,1.5,2.8c0.9,0.7,1.9,1,3.2,1c0.9,0,1.7-0.2,2.3-0.6c0.7-0.4,1.1-0.8,1.5-1.4l1.4,0.8c-0.5,0.8-1.2,1.5-2.1,2
				s-1.9,0.7-3.1,0.7c-1.8,0-3.4-0.6-4.5-1.7c-1.2-1.2-1.7-2.6-1.7-4.4c0-1.8,0.6-3.2,1.7-4.4C135.9,60.4,137.4,59.8,139.2,59.8z
				 M139.2,61.3c-1.2,0-2.2,0.4-3.1,1.1c-0.8,0.7-1.3,1.7-1.5,2.8h8.8c-0.2-1.2-0.6-2.2-1.4-2.9C141.2,61.7,140.2,61.3,139.2,61.3z"
				/>
			<path class="st0" d="M154.4,72.1c-1.8,0-3.2-0.6-4.4-1.8c-1.2-1.2-1.8-2.6-1.8-4.4s0.6-3.2,1.8-4.4c1.2-1.2,2.6-1.8,4.4-1.8
				c1.2,0,2.2,0.3,3.1,0.8c0.9,0.6,1.6,1.3,2,2.2l-1.3,0.7c-0.3-0.7-0.8-1.3-1.5-1.7c-0.7-0.4-1.5-0.6-2.4-0.6
				c-1.3,0-2.4,0.5-3.3,1.4c-0.9,0.9-1.3,2-1.3,3.3c0,1.3,0.4,2.4,1.3,3.3c0.9,0.9,2,1.4,3.3,1.4c0.9,0,1.7-0.2,2.4-0.6
				c0.7-0.4,1.2-1,1.6-1.7l1.3,0.8c-0.5,0.9-1.2,1.7-2.1,2.2C156.6,71.9,155.5,72.1,154.4,72.1z"/>
			<path class="st0" d="M168.9,59.8c1.4,0,2.6,0.4,3.4,1.3c0.8,0.9,1.2,2,1.2,3.5v7.2h-1.6v-7.2c0-1-0.3-1.9-0.8-2.4
				c-0.6-0.6-1.3-0.9-2.4-0.9c-1.1,0-2,0.4-2.7,1.1c-0.7,0.7-1.1,1.8-1.1,3.3v6.2h-1.6V60.1h1.6v1.8
				C165.8,60.5,167.1,59.8,168.9,59.8z"/>
			<path class="st0" d="M187.8,70.4c-1.2,1.2-2.7,1.8-4.4,1.8s-3.2-0.6-4.4-1.8c-1.2-1.2-1.8-2.6-1.8-4.4s0.6-3.2,1.8-4.4
				c1.2-1.2,2.7-1.8,4.4-1.8s3.2,0.6,4.4,1.8c1.2,1.2,1.8,2.6,1.8,4.4S189,69.2,187.8,70.4z M180.1,69.3c0.9,0.9,2,1.4,3.3,1.4
				c1.3,0,2.4-0.5,3.3-1.4c0.9-0.9,1.3-2,1.3-3.3c0-1.3-0.4-2.4-1.3-3.3c-0.9-0.9-2-1.4-3.3-1.4c-1.3,0-2.4,0.5-3.3,1.4
				c-0.9,0.9-1.3,2-1.3,3.3C178.8,67.3,179.2,68.4,180.1,69.3z"/>
			<path class="st0" d="M193.6,71.9V56.3l1.6-1.6v17.2H193.6z"/>
			<path class="st0" d="M209.8,70.4c-1.2,1.2-2.7,1.8-4.4,1.8s-3.2-0.6-4.4-1.8c-1.2-1.2-1.8-2.6-1.8-4.4s0.6-3.2,1.8-4.4
				c1.2-1.2,2.7-1.8,4.4-1.8s3.2,0.6,4.4,1.8c1.2,1.2,1.8,2.6,1.8,4.4S211,69.2,209.8,70.4z M202.1,69.3c0.9,0.9,2,1.4,3.3,1.4
				c1.3,0,2.4-0.5,3.3-1.4c0.9-0.9,1.3-2,1.3-3.3c0-1.3-0.4-2.4-1.3-3.3c-0.9-0.9-2-1.4-3.3-1.4c-1.3,0-2.4,0.5-3.3,1.4
				c-0.9,0.9-1.3,2-1.3,3.3C200.8,67.3,201.2,68.4,202.1,69.3z"/>
			<path class="st0" d="M225.7,60.1h1.6v11.3c0,1.7-0.6,3-1.7,4c-1.2,1-2.5,1.5-4.2,1.5c-2.8,0-4.6-1-5.6-2.9l1.4-0.8
				c0.7,1.4,2.1,2.1,4.2,2.1c1.3,0,2.4-0.4,3.2-1.1c0.8-0.7,1.2-1.7,1.2-2.9v-1.8c-1.1,1.7-2.7,2.6-4.7,2.6c-1.7,0-3.1-0.6-4.3-1.8
				c-1.2-1.2-1.8-2.6-1.8-4.4s0.6-3.2,1.8-4.4s2.6-1.8,4.3-1.8c2.1,0,3.7,0.9,4.7,2.6V60.1z M217.8,69.3c0.9,0.9,2,1.4,3.3,1.4
				c1.3,0,2.4-0.5,3.3-1.4c0.9-0.9,1.3-2,1.3-3.3c0-1.3-0.4-2.4-1.3-3.3c-0.9-0.9-2-1.4-3.3-1.4c-1.3,0-2.4,0.5-3.3,1.4
				c-0.9,0.9-1.3,2-1.3,3.3C216.5,67.3,216.9,68.4,217.8,69.3z"/>
			<path class="st0" d="M233.6,57.3c-0.2,0.2-0.5,0.3-0.8,0.3c-0.3,0-0.6-0.1-0.8-0.3c-0.2-0.2-0.3-0.5-0.3-0.8
				c0-0.3,0.1-0.6,0.3-0.8c0.2-0.2,0.5-0.3,0.8-0.3c0.3,0,0.6,0.1,0.8,0.3c0.2,0.2,0.3,0.5,0.3,0.8
				C233.9,56.8,233.8,57.1,233.6,57.3z M232,71.9V60.1h1.6v11.8H232z"/>
			<path class="st0" d="M248.4,60.1h1.6v11.8h-1.6v-2.3c-1.1,1.7-2.7,2.6-4.7,2.6c-1.7,0-3.1-0.6-4.3-1.8c-1.2-1.2-1.8-2.6-1.8-4.4
				s0.6-3.2,1.8-4.4s2.6-1.8,4.3-1.8c2.1,0,3.7,0.9,4.7,2.6V60.1z M240.5,69.3c0.9,0.9,2,1.4,3.3,1.4c1.3,0,2.4-0.5,3.3-1.4
				c0.9-0.9,1.3-2,1.3-3.3c0-1.3-0.4-2.4-1.3-3.3c-0.9-0.9-2-1.4-3.3-1.4c-1.3,0-2.4,0.5-3.3,1.4c-0.9,0.9-1.3,2-1.3,3.3
				C239.2,67.3,239.6,68.4,240.5,69.3z"/>
		</g>
	</g>
</g>
</svg>
